<svg xmlns="http://www.w3.org/2000/svg" xmlns:xlink="http://www.w3.org/1999/xlink" viewBox="0 0 336 504"><defs><style>.cls-1,.cls-19,.cls-2,.cls-3{fill:none;}.cls-2{stroke:#dcd4a6;stroke-width:0.25px;}.cls-19,.cls-2{stroke-miterlimit:10;}.cls-3{stroke:#85080a;stroke-width:0.95px;}.cls-10,.cls-4{fill:#fff;}.cls-4{opacity:0.5;}.cls-5{fill:#fac839;}.cls-5,.cls-6,.cls-7{opacity:0.75;}.cls-6{fill:#009f4d;}.cls-7{fill:#0091d4;}.cls-8{fill:#231f20;opacity:0.6;}.cls-9{fill:#da2128;}.cls-10{opacity:0.33;}.cls-11{fill:#fff9db;}.cls-12{fill:#edc945;}.cls-13{fill:#dcd4a6;}.cls-14{fill:url(#Bread_Pattern);}.cls-15{fill:#f2f2f2;}.cls-16{fill:#003a60;}.cls-17{fill:#374f70;}.cls-18{fill:url(#Plaid_4_Color);}.cls-19{stroke:#000;stroke-width:2px;}.cls-20{fill:#698a3b;}.cls-21{fill:#475b28;}</style><pattern id="Bread_Pattern" data-name="Bread Pattern" width="30" height="30" patternUnits="userSpaceOnUse" viewBox="0 0 30 30"><rect class="cls-1" width="30" height="30"/><line class="cls-2" x1="36" y1="18" x2="18" y2="36"/><line class="cls-2" x1="42" y1="18" x2="18" y2="42"/><line class="cls-2" x1="48" y1="18" x2="18" y2="48"/><line class="cls-2" x1="54" y1="18" x2="18" y2="54"/><line class="cls-2" x1="60" y1="18" x2="18" y2="60"/><line class="cls-2" x1="66" y1="18" x2="18" y2="66"/><line class="cls-2" x1="72" y1="18" x2="18" y2="72"/><line class="cls-2" x1="72" y1="24" x2="24" y2="72"/><line class="cls-2" x1="72" y1="30" x2="30" y2="72"/><line class="cls-2" x1="6" y1="18" x2="-12" y2="36"/><line class="cls-2" x1="12" y1="18" x2="-12" y2="42"/><line class="cls-2" x1="18" y1="18" x2="-12" y2="48"/><line class="cls-2" x1="24" y1="18" x2="-12" y2="54"/><line class="cls-2" x1="30" y1="18" x2="-12" y2="60"/><line class="cls-2" x1="36" y1="18" x2="-12" y2="66"/><line class="cls-2" x1="42" y1="18" x2="-12" y2="72"/><line class="cls-2" x1="42" y1="24" x2="-6" y2="72"/><line class="cls-2" x1="42" y1="30" y2="72"/><line class="cls-2" y1="18" x2="-42" y2="60"/><line class="cls-2" x1="6" y1="18" x2="-42" y2="66"/><line class="cls-2" x1="12" y1="18" x2="-42" y2="72"/><line class="cls-2" x1="12" y1="24" x2="-36" y2="72"/><line class="cls-2" x1="12" y1="30" x2="-30" y2="72"/><line class="cls-2" x1="36" y1="-12" x2="18" y2="6"/><line class="cls-2" x1="42" y1="-12" x2="18" y2="12"/><line class="cls-2" x1="48" y1="-12" x2="18" y2="18"/><line class="cls-2" x1="54" y1="-12" x2="18" y2="24"/><line class="cls-2" x1="60" y1="-12" x2="18" y2="30"/><line class="cls-2" x1="66" y1="-12" x2="18" y2="36"/><line class="cls-2" x1="72" y1="-12" x2="18" y2="42"/><line class="cls-2" x1="72" y1="-6" x2="24" y2="42"/><line class="cls-2" x1="72" x2="30" y2="42"/><line class="cls-2" x1="6" y1="-12" x2="-12" y2="6"/><line class="cls-2" x1="12" y1="-12" x2="-12" y2="12"/><line class="cls-2" x1="18" y1="-12" x2="-12" y2="18"/><line class="cls-2" x1="24" y1="-12" x2="-12" y2="24"/><line class="cls-2" x1="30" y1="-12" x2="-12" y2="30"/><line class="cls-2" x1="36" y1="-12" x2="-12" y2="36"/><line class="cls-2" x1="42" y1="-12" x2="-12" y2="42"/><line class="cls-2" x1="42" y1="-6" x2="-6" y2="42"/><line class="cls-2" x1="42" y2="42"/><line class="cls-2" x1="42" y1="6" x2="6" y2="42"/><line class="cls-2" x1="42" y1="12" x2="12" y2="42"/><line class="cls-2" x1="42" y1="18" x2="18" y2="42"/><line class="cls-2" x1="42" y1="24" x2="24" y2="42"/><line class="cls-2" x1="42" y1="30" x2="30" y2="42"/><line class="cls-2" y1="-12" x2="-42" y2="30"/><line class="cls-2" x1="6" y1="-12" x2="-42" y2="36"/><line class="cls-2" x1="12" y1="-12" x2="-42" y2="42"/><line class="cls-2" x1="12" y1="-6" x2="-36" y2="42"/><line class="cls-2" x1="12" x2="-30" y2="42"/><line class="cls-2" x1="12" y1="6" x2="-24" y2="42"/><line class="cls-2" x1="12" y1="12" x2="-18" y2="42"/><line class="cls-2" x1="12" y1="18" x2="-12" y2="42"/><line class="cls-2" x1="12" y1="24" x2="-6" y2="42"/><line class="cls-2" x1="12" y1="30" y2="42"/><line class="cls-2" x1="60" y1="-42" x2="18"/><line class="cls-2" x1="66" y1="-42" x2="18" y2="6"/><line class="cls-2" x1="72" y1="-42" x2="18" y2="12"/><line class="cls-2" x1="72" y1="-36" x2="24" y2="12"/><line class="cls-2" x1="72" y1="-30" x2="30" y2="12"/><line class="cls-2" x1="30" y1="-42" x2="-12"/><line class="cls-2" x1="36" y1="-42" x2="-12" y2="6"/><line class="cls-2" x1="42" y1="-42" x2="-12" y2="12"/><line class="cls-2" x1="42" y1="-36" x2="-6" y2="12"/><line class="cls-2" x1="42" y1="-30" y2="12"/><line class="cls-2" x1="42" y1="-24" x2="6" y2="12"/><line class="cls-2" x1="42" y1="-18" x2="12" y2="12"/><line class="cls-2" x1="42" y1="-12" x2="18" y2="12"/><line class="cls-2" x1="42" y1="-6" x2="24" y2="12"/><line class="cls-2" x1="42" x2="30" y2="12"/><line class="cls-2" y1="-42" x2="-42"/><line class="cls-2" x1="6" y1="-42" x2="-42" y2="6"/><line class="cls-2" x1="12" y1="-42" x2="-42" y2="12"/><line class="cls-2" x1="12" y1="-36" x2="-36" y2="12"/><line class="cls-2" x1="12" y1="-30" x2="-30" y2="12"/><line class="cls-2" x1="12" y1="-24" x2="-24" y2="12"/><line class="cls-2" x1="12" y1="-18" x2="-18" y2="12"/><line class="cls-2" x1="12" y1="-12" x2="-12" y2="12"/><line class="cls-2" x1="12" y1="-6" x2="-6" y2="12"/><line class="cls-2" x1="12" y2="12"/></pattern><pattern id="Plaid_4_Color" data-name="Plaid 4 Color" width="82.08" height="82.08" patternUnits="userSpaceOnUse" viewBox="0 0 82.08 82.08"><rect class="cls-1" width="82.08" height="82.08"/><line class="cls-3" x1="30.89" y1="82.07" x2="30.89" y2="164.18"/><line class="cls-3" x1="58.25" y1="82.07" x2="58.25" y2="164.18"/><line class="cls-3" x1="3.53" y1="82.07" x2="3.53" y2="164.15"/><rect class="cls-4" x="37.73" y="82.07" width="4.56" height="82.11"/><rect class="cls-5" x="65.09" y="82.07" width="4.56" height="82.11"/><rect class="cls-6" x="10.37" y="82.07" width="4.56" height="82.11"/><rect class="cls-7" x="74.21" y="82.08" width="4.56" height="82.1"/><rect class="cls-8" x="19.49" y="82.07" width="4.56" height="82.11"/><rect class="cls-9" y="0.01" width="82.09" height="82.1"/><line class="cls-3" x1="0.01" y1="51.47" x2="82.09" y2="51.47"/><line class="cls-3" x1="0.01" y1="78.83" x2="82.09" y2="78.83"/><line class="cls-3" x1="0.01" y1="24.11" x2="82.09" y2="24.11"/><line class="cls-3" x1="30.89" x2="30.89" y2="82.1"/><line class="cls-3" x1="58.25" x2="58.25" y2="82.1"/><line class="cls-3" x1="3.53" x2="3.53" y2="82.07"/><rect class="cls-6" x="0.01" y="40.07" width="82.08" height="4.56"/><rect class="cls-7" x="0.01" y="67.43" width="82.08" height="4.56"/><rect class="cls-5" x="0.01" y="12.71" width="82.08" height="4.56"/><rect class="cls-7" x="0.01" y="30.95" width="82.08" height="4.56"/><rect class="cls-5" x="0.01" y="58.31" width="82.08" height="4.56"/><rect class="cls-6" x="0.01" y="3.59" width="82.08" height="4.56"/><rect class="cls-4" x="37.73" width="4.56" height="82.11"/><rect class="cls-5" x="65.09" width="4.56" height="82.11"/><rect class="cls-6" x="10.37" width="4.56" height="82.11"/><rect class="cls-7" x="46.85" width="4.56" height="82.1"/><rect class="cls-7" x="74.21" width="4.56" height="82.1"/><rect class="cls-8" x="19.49" width="4.56" height="82.11"/><rect class="cls-10" x="10.37" y="12.71" width="4.56" height="4.56"/><rect class="cls-10" x="19.49" y="3.59" width="4.56" height="4.56"/><rect class="cls-10" x="19.49" y="12.71" width="4.56" height="4.56"/><rect class="cls-10" x="10.37" y="3.59" width="4.56" height="4.56"/><rect class="cls-10" x="37.73" y="12.71" width="4.56" height="4.56"/><rect class="cls-10" x="46.85" y="3.59" width="4.56" height="4.56"/><rect class="cls-10" x="46.85" y="12.71" width="4.56" height="4.56"/><rect class="cls-10" x="37.73" y="3.59" width="4.56" height="4.56"/><rect class="cls-10" x="65.09" y="12.71" width="4.56" height="4.56"/><rect class="cls-10" x="74.21" y="3.59" width="4.56" height="4.56"/><rect class="cls-10" x="74.21" y="12.71" width="4.56" height="4.56"/><rect class="cls-10" x="65.09" y="3.59" width="4.56" height="4.56"/><rect class="cls-10" x="10.37" y="40.07" width="4.56" height="4.56"/><rect class="cls-10" x="19.49" y="30.95" width="4.56" height="4.56"/><rect class="cls-10" x="19.49" y="40.07" width="4.56" height="4.56"/><rect class="cls-10" x="10.37" y="30.95" width="4.56" height="4.56"/><rect class="cls-10" x="37.73" y="40.07" width="4.56" height="4.56"/><rect class="cls-10" x="46.85" y="30.95" width="4.56" height="4.56"/><rect class="cls-10" x="46.85" y="40.07" width="4.56" height="4.56"/><rect class="cls-10" x="37.73" y="30.95" width="4.56" height="4.56"/><rect class="cls-10" x="65.09" y="40.07" width="4.56" height="4.56"/><rect class="cls-10" x="74.21" y="30.95" width="4.56" height="4.56"/><rect class="cls-10" x="74.21" y="40.07" width="4.56" height="4.56"/><rect class="cls-10" x="65.09" y="30.95" width="4.56" height="4.56"/><rect class="cls-10" x="10.37" y="67.43" width="4.56" height="4.56"/><rect class="cls-10" x="19.49" y="58.31" width="4.56" height="4.56"/><rect class="cls-10" x="19.49" y="67.43" width="4.56" height="4.56"/><rect class="cls-10" x="10.37" y="58.31" width="4.56" height="4.56"/><rect class="cls-10" x="37.73" y="67.43" width="4.56" height="4.56"/><rect class="cls-10" x="46.85" y="58.31" width="4.56" height="4.56"/><rect class="cls-10" x="46.85" y="67.43" width="4.56" height="4.56"/><rect class="cls-10" x="37.73" y="58.31" width="4.56" height="4.56"/><rect class="cls-10" x="65.09" y="67.43" width="4.56" height="4.56"/><rect class="cls-10" x="74.21" y="58.31" width="4.56" height="4.56"/><rect class="cls-10" x="74.21" y="67.43" width="4.56" height="4.56"/><rect class="cls-10" x="65.09" y="58.31" width="4.56" height="4.56"/><rect class="cls-9" x="-82.08" y="0.01" width="82.09" height="82.1"/><line class="cls-3" x1="-82.07" y1="51.47" x2="0.01" y2="51.47"/><line class="cls-3" x1="-82.07" y1="78.83" x2="0.01" y2="78.83"/><line class="cls-3" x1="-82.07" y1="24.11" x2="0.01" y2="24.11"/><rect class="cls-6" x="-82.07" y="40.07" width="82.08" height="4.56"/><rect class="cls-7" x="-82.07" y="67.43" width="82.08" height="4.56"/><rect class="cls-5" x="-82.07" y="12.71" width="82.08" height="4.56"/><rect class="cls-7" x="-82.07" y="30.95" width="82.08" height="4.56"/><rect class="cls-5" x="-82.07" y="58.31" width="82.08" height="4.56"/><rect class="cls-6" x="-82.07" y="3.59" width="82.08" height="4.56"/><rect class="cls-9" y="-82.07" width="82.09" height="82.1"/><line class="cls-3" x1="30.89" y1="-82.08" x2="30.89" y2="0.02"/><line class="cls-3" x1="58.25" y1="-82.08" x2="58.25" y2="0.02"/><rect class="cls-4" x="37.73" y="-82.08" width="4.56" height="82.11"/><rect class="cls-5" x="65.09" y="-82.08" width="4.56" height="82.11"/><rect class="cls-6" x="10.37" y="-82.08" width="4.56" height="82.11"/><rect class="cls-7" x="46.85" y="-82.08" width="4.56" height="82.1"/><rect class="cls-7" x="74.21" y="-82.08" width="4.56" height="82.1"/><rect class="cls-8" x="19.49" y="-82.08" width="4.56" height="82.11"/><rect class="cls-9" x="-82.08" y="-82.07" width="82.09" height="82.1"/></pattern></defs><title>avatar</title><g id="Naked"><g id="Feet"><rect id="Letf_Foot" data-name="Letf Foot" class="cls-11" y="1296" width="144" height="48"/><rect id="Right_Foot" data-name="Right Foot" class="cls-11" x="192" y="1296" width="144" height="48"/></g><g id="Head"><polygon id="Face" class="cls-11" points="240 288 240 384 96 384 96 48 288 48 288 288 240 288"/><polyline id="Hair" class="cls-12" points="96 48 192 48 192 0 336 0 336 96 288 96 192 96 192 144 144 144 143 192 96 192"/><rect id="Chin" class="cls-13" x="144" y="288" width="96" height="48"/><polygon id="Beard" class="cls-14" points="288 288 97 288 96 192 144 192 144 240 288 240 288 288"/></g><g id="Body"><polygon id="Torso" class="cls-11" points="48 768 288 768 288 432 288 864 336 864 336 384 288 384 288 336 192 336 192 384 144 384 144 336 48 336 48 384 0 384 0 864 48 864 48 432 48 768"/><polygon id="Legs" class="cls-11" points="288 1296 192 1296 192 816 144 816 144 1296 48 1296 48 768 288 768 288 1296"/><g id="Undershirt"><polygon class="cls-15" points="48 768 288 768 288 432 288 528 336 528 336 384 288 384 288 336 192 336 192 384 144 384 144 336 48 336 48 384 0 384 0 528 48 528 48 432 48 768"/></g><polygon id="Boxers" class="cls-16" points="288 864 192 864 192 816 144 816 144 864 48 864 48 720 288 720 288 864"/></g></g><g id="Hipster"><polyline id="Jeans" class="cls-16" points="288 1296 192 1296 192 816 144 816 144 1296 48 1296 48 720 288 720"/><rect class="cls-17" x="48" y="960" width="48" height="96"/><rect class="cls-17" x="240" y="960" width="48" height="96"/><g id="Plaid_Shirt" data-name="Plaid Shirt"><g id="Pattern_One" data-name="Pattern One"><polygon class="cls-18" points="48 768 288 768 288 432 288 768 336 768 336 384 288 384 288 336 192 336 192 384 144 384 144 336 48 336 49 384 0 384 0 768 48 768 49 433 48 768"/></g><line id="Left_Lapel" data-name="Left Lapel" class="cls-19" x1="144" y1="336" x2="96" y2="384"/><line id="Right_Lapel" data-name="Right Lapel" class="cls-19" x1="192" y1="336" x2="240" y2="384"/><g id="Buttons"><rect x="162" y="402" width="12" height="12"/><rect x="162" y="450" width="12" height="12"/><rect x="162" y="498" width="12" height="12"/><rect x="162" y="546" width="12" height="12" rx="0.59" ry="0.59"/><rect x="162" y="594" width="12" height="12" rx="0.59" ry="0.59"/><rect x="162" y="642" width="12" height="12" rx="0.59" ry="0.59"/><rect x="162" y="684" width="12" height="12" rx="0.59" ry="0.59"/></g></g><g id="Jacket"><g id="Left"><polyline class="cls-20" points="96 336 48 336 48 384 0 384 0 756 48 756 49 433 48 768 96 768"/></g><g id="Right"><polyline class="cls-20" points="240 768 288 768 288 432 288 756 336 756 336 384 288 384 288 336 240 336"/></g><rect class="cls-21" x="246" y="414" width="36" height="12"/><rect class="cls-21" x="54" y="414" width="36" height="12"/></g><g id="Shoes"><g id="Left-2" data-name="Left"><rect class="cls-20" y="1296" width="144" height="48"/></g><g id="Right-2" data-name="Right"><rect class="cls-20" x="192" y="1296" width="144" height="48"/></g></g></g></svg>
